<svg xmlns="http://www.w3.org/2000/svg" width="36.08" height="36.08" viewBox="0 0 36.08 36.08"><defs><style>.a{fill:#aa9e47;}</style></defs><g transform="translate(0.001 -0.006)"><path class="a" d="M152.3,13.973c0-7.586-7.468-13.589-7.786-13.841a.582.582,0,0,0-.723,0C143.472.384,136,6.387,136,13.973c0,6.96,6.285,12.584,7.565,13.659v6.127a.582.582,0,1,0,1.164,0V27.632c1.28-1.075,7.565-6.7,7.565-13.659Zm-7.565,12.092V19.48l3.282-2.731a.582.582,0,0,0-.745-.9l-2.537,2.112V15.987l3.282-2.732a.582.582,0,0,0-.745-.895l-2.537,2.113v-2.56l3.282-2.732a.582.582,0,0,0-.745-.895L144.733,10.4V5.826a.582.582,0,1,0-1.164,0V10.4l-2.537-2.112a.582.582,0,1,0-.745.9l3.282,2.731v2.56l-2.537-2.112a.582.582,0,1,0-.745.9l3.282,2.73v1.978l-2.537-2.112a.582.582,0,1,0-.745.9l3.282,2.73v6.586c-1.978-1.856-6.4-6.614-6.4-12.092,0-6.107,5.5-11.33,6.983-12.622,1.479,1.292,6.983,6.515,6.983,12.622,0,5.478-4.423,10.236-6.4,12.092Zm0,0" transform="translate(-126.113 0)"/><path class="a" d="M13.965,179.208h-.582v-4.273a2.889,2.889,0,0,0-.852-2.057l-4.9-4.9a1.746,1.746,0,0,0-2.464,0l-.514.516v-6.16a2.331,2.331,0,0,0-2.5-2.322A2.39,2.39,0,0,0,0,162.431v8.313A2.905,2.905,0,0,0,.756,172.7l5.063,5.569v.939H5.236a.582.582,0,0,0-.582.582v4.073a.582.582,0,0,0,.582.582h8.729a.582.582,0,0,0,.582-.582V179.79a.582.582,0,0,0-.582-.582ZM1.617,171.917a1.741,1.741,0,0,1-.454-1.174v-8.313a1.239,1.239,0,0,1,1.078-1.259,1.167,1.167,0,0,1,.908.339,1.153,1.153,0,0,1,.342.822v7.083A1.734,1.734,0,0,0,4,170.65L7.153,173.8a.582.582,0,0,0,.823-.823L5.3,170.307a.577.577,0,0,1,0-.818l.687-.686a.582.582,0,0,1,.818,0l4.9,4.9a1.755,1.755,0,0,1,.511,1.234v4.273H6.982v-1.389Zm11.766,11.365H5.818v-2.91h7.565Zm0,0" transform="translate(0 -148.36)"/><path class="a" d="M308.394,160.01a2.331,2.331,0,0,0-2.5,2.322v6.16l-.514-.514a1.746,1.746,0,0,0-2.464,0l-4.9,4.9a2.891,2.891,0,0,0-.853,2.057v4.273h-.582a.582.582,0,0,0-.582.582v4.073a.582.582,0,0,0,.582.582h8.729a.582.582,0,0,0,.582-.582V179.79a.582.582,0,0,0-.582-.582h-.582v-.939L309.8,172.7a2.9,2.9,0,0,0,.756-1.957v-8.313a2.39,2.39,0,0,0-2.158-2.42Zm-3.661,23.271h-7.565v-2.91h7.565Zm4.655-12.538a1.739,1.739,0,0,1-.454,1.174l-5.365,5.9v1.389h-5.237v-4.273a1.756,1.756,0,0,1,.511-1.234l4.9-4.9a.582.582,0,0,1,.818,0l.687.687a.577.577,0,0,1,0,.815l-2.672,2.672a.582.582,0,1,0,.823.823l3.151-3.15a1.736,1.736,0,0,0,.511-1.233v-7.083a1.155,1.155,0,0,1,.342-.822,1.168,1.168,0,0,1,.908-.339,1.239,1.239,0,0,1,1.078,1.259Zm0,0" transform="translate(-274.473 -148.36)"/><path class="a" d="M240.172,480.131a.609.609,0,0,0-.169.413.794.794,0,0,0,.012.116.376.376,0,0,0,.035.1.456.456,0,0,0,.052.1.977.977,0,0,0,.07.087.59.59,0,0,0,.826,0l.07-.087a.456.456,0,0,0,.052-.1.341.341,0,0,0,.034-.1.7.7,0,0,0,.012-.116.582.582,0,0,0-1-.413Zm0,0" transform="translate(-222.547 -445.04)"/><path class="a" d="M88.586,449.172h2.328a.582.582,0,0,0,0-1.164H88.586a.582.582,0,0,0,0,1.164Zm0,0" transform="translate(-81.604 -415.414)"/><path class="a" d="M144.363,449.136a.581.581,0,1,0,0-1.071.6.6,0,0,0-.192.122.609.609,0,0,0-.169.413A.559.559,0,0,0,144.363,449.136Zm0,0" transform="translate(-133.528 -415.425)"/><path class="a" d="M313.156,200.565a.346.346,0,0,0-.034-.1.45.45,0,0,0-.052-.1l-.07-.087a.609.609,0,0,0-.826,0,.906.906,0,0,0-.07.087.45.45,0,0,0-.052.1.381.381,0,0,0-.035.1.886.886,0,0,0-.012.116.609.609,0,0,0,.169.413.6.6,0,0,0,.413.169.576.576,0,0,0,.582-.582A.762.762,0,0,0,313.156,200.565Zm0,0" transform="translate(-289.31 -185.545)"/></g></svg>