<svg xmlns="http://www.w3.org/2000/svg" width="28.226" height="36.15" viewBox="0 0 28.226 36.15"><defs><style>.a{fill:#aa9e47;}</style></defs><g transform="translate(-56.113 0.001)"><path class="a" d="M76.1,203.259a.53.53,0,0,0,.53-.53v-7.613a.53.53,0,0,0-.53-.53H74.473a.53.53,0,1,0,0,1.059h1.1v7.083a.53.53,0,0,0,.53.53Z" transform="translate(-16.571 -180.849)"/><path class="a" d="M358.76,205.2a.529.529,0,0,0,.693-.283l2.983-7.109a.53.53,0,0,0-.977-.41l-2.983,7.109A.53.53,0,0,0,358.76,205.2Z" transform="translate(-280.977 -183.163)"/><path class="a" d="M335.375,194.448a1.859,1.859,0,1,0-1.848,2.061A1.966,1.966,0,0,0,335.375,194.448Zm-1.848,1a1.031,1.031,0,1,1,.789-1A.916.916,0,0,1,333.528,195.451Z" transform="translate(-256.111 -178.805)"/><path class="a" d="M390.592,265.346a2.074,2.074,0,1,0-1.848-2.061A1.966,1.966,0,0,0,390.592,265.346Zm0-3.064a1.031,1.031,0,1,1-.789,1A.916.916,0,0,1,390.592,262.282Z" transform="translate(-309.146 -242.781)"/><path class="a" d="M235.3,195.118v3.521a2.731,2.731,0,0,0,5.462,0v-3.521a2.731,2.731,0,0,0-5.462,0Zm4.4,0v3.521a1.672,1.672,0,0,1-3.344,0v-3.521a1.672,1.672,0,0,1,3.344,0Z" transform="translate(-166.539 -178.805)"/><path class="a" d="M135.536,195.118v3.521a2.731,2.731,0,0,0,5.462,0v-3.521a2.731,2.731,0,0,0-5.462,0Zm4.4,0v3.521a1.672,1.672,0,0,1-3.344,0v-3.521a1.672,1.672,0,0,1,3.344,0Z" transform="translate(-73.815 -178.805)"/><path class="a" d="M56.643,11.812H83.81a.53.53,0,0,0,0-1.059H80.337a2.779,2.779,0,0,0,.606-1.734.53.53,0,0,0-1.059,0,1.736,1.736,0,0,1-1.734,1.734H75.695a5.058,5.058,0,0,0,.436-.386,4.837,4.837,0,0,0,1.44-3.612.53.53,0,0,0-.506-.506,4.837,4.837,0,0,0-3.612,1.44,5.024,5.024,0,0,0-.815,1.067.53.53,0,0,0,.921.524,3.964,3.964,0,0,1,.643-.842A3.831,3.831,0,0,1,76.5,7.323a3.831,3.831,0,0,1-1.115,2.294A3.9,3.9,0,0,1,72.6,10.752H70.756V8.676a5.912,5.912,0,0,0,1.7-4.186A5.893,5.893,0,0,0,70.583.138a.53.53,0,0,0-.715,0A5.893,5.893,0,0,0,68,4.49c0,.206.01.415.031.619A.53.53,0,1,0,69.083,5c-.017-.169-.025-.342-.025-.513a4.885,4.885,0,0,1,1.168-3.2,4.885,4.885,0,0,1,1.168,3.2,4.884,4.884,0,0,1-1.168,3.2,4.629,4.629,0,0,1-.47-.648.529.529,0,1,0-.907.546A5.647,5.647,0,0,0,69.7,8.677v2.075H68.477a4.934,4.934,0,0,0-5.042-4.5.53.53,0,0,0-.506.506,4.837,4.837,0,0,0,1.44,3.612,5.061,5.061,0,0,0,.436.386H62.3a1.736,1.736,0,0,1-1.734-1.734.53.53,0,1,0-1.059,0,2.779,2.779,0,0,0,.606,1.734H56.643a.53.53,0,0,0,0,1.059ZM64,7.323a3.9,3.9,0,0,1,3.409,3.409A3.9,3.9,0,0,1,64,7.323Z"/><path class="a" d="M83.81,344.693H56.643a.53.53,0,0,0,0,1.059h3.472a2.779,2.779,0,0,0-.606,1.734.53.53,0,1,0,1.059,0,1.736,1.736,0,0,1,1.734-1.734h2.455a5.056,5.056,0,0,0-.436.386,4.837,4.837,0,0,0-1.44,3.612.53.53,0,0,0,.506.506q.1,0,.2,0A4.854,4.854,0,0,0,67,348.816a5.022,5.022,0,0,0,.815-1.067.53.53,0,1,0-.921-.524,3.965,3.965,0,0,1-.643.842,3.831,3.831,0,0,1-2.294,1.115,3.831,3.831,0,0,1,1.115-2.294,3.907,3.907,0,0,1,2.761-1.135H69.7v2.076a6,6,0,0,0,.172,8.539.53.53,0,0,0,.715,0,5.893,5.893,0,0,0,1.87-4.353c0-.206-.01-.415-.031-.619a.53.53,0,1,0-1.054.105c.017.169.025.342.025.513a4.885,4.885,0,0,1-1.168,3.2,4.978,4.978,0,0,1,0-6.408,4.631,4.631,0,0,1,.47.648.53.53,0,1,0,.907-.546,5.647,5.647,0,0,0-.848-1.085v-2.075h1.219a4.941,4.941,0,0,0,4.842,4.508c.067,0,.133,0,.2,0a.53.53,0,0,0,.506-.506,4.837,4.837,0,0,0-1.44-3.612,5.061,5.061,0,0,0-.435-.386h2.5a1.736,1.736,0,0,1,1.734,1.734.53.53,0,1,0,1.059,0,2.779,2.779,0,0,0-.606-1.734h3.472a.53.53,0,0,0,0-1.059Zm-7.361,4.489a3.9,3.9,0,0,1-3.409-3.409,3.9,3.9,0,0,1,3.409,3.409Z" transform="translate(0 -320.357)"/></g></svg>