<svg xmlns="http://www.w3.org/2000/svg" width="13" height="13" viewBox="0 0 13 13"><defs><style>.a{fill:#aa9e47;}</style></defs><path class="a" d="M8.293,4.707A3.857,3.857,0,0,1,8.3,10.156l-.009.009L6.587,11.871A3.859,3.859,0,0,1,1.129,6.413l.942-.942a.406.406,0,0,1,.693.269A4.679,4.679,0,0,0,3.01,7.079a.409.409,0,0,1-.1.422l-.332.332a1.828,1.828,0,1,0,2.569,2.6L6.857,8.729a1.828,1.828,0,0,0,0-2.586,1.9,1.9,0,0,0-.263-.218.407.407,0,0,1-.176-.32,1.011,1.011,0,0,1,.3-.757l.535-.535a.408.408,0,0,1,.523-.044,3.872,3.872,0,0,1,.521.437Zm3.578-3.579a3.864,3.864,0,0,0-5.458,0L4.707,2.835,4.7,2.844a3.86,3.86,0,0,0,.53,5.885.408.408,0,0,0,.523-.044l.535-.535a1.011,1.011,0,0,0,.3-.757.407.407,0,0,0-.176-.32,1.9,1.9,0,0,1-.263-.218,1.828,1.828,0,0,1,0-2.586L7.85,2.565a1.828,1.828,0,1,1,2.569,2.6l-.332.332a.409.409,0,0,0-.1.422,4.679,4.679,0,0,1,.246,1.339.406.406,0,0,0,.693.269l.942-.942a3.863,3.863,0,0,0,0-5.458Z" transform="translate(0 0)"/></svg>