<svg xmlns="http://www.w3.org/2000/svg" width="41" height="41" viewBox="0 0 41 41"><defs><style>.a{fill:#fff;opacity:0.93;}</style></defs><g transform="translate(-162 -732)"><circle class="a" cx="20.5" cy="20.5" r="20.5" transform="translate(162 732)"/><path d="M17.5,4.5l2.492,2.492L16.861,10.1,18.4,11.639l3.109-3.131L24,11V4.5ZM4.5,11,6.992,8.508,10.1,11.639,11.639,10.1,8.508,6.992,11,4.5H4.5ZM11,24,8.508,21.508,11.639,18.4,10.1,16.861,6.992,19.992,4.5,17.5V24Zm13-6.5-2.492,2.492L18.4,16.861,16.861,18.4l3.131,3.109L17.5,24H24Z" transform="translate(168.5 738.5)"/></g></svg>