<svg xmlns="http://www.w3.org/2000/svg" width="13" height="12.997" viewBox="0 0 13 12.997"><defs><style>.a{fill:#aa9e47;}</style></defs><path class="a" d="M6.5,5.4A3.332,3.332,0,1,0,9.828,8.736,3.327,3.327,0,0,0,6.5,5.4Zm0,5.5A2.166,2.166,0,1,1,8.663,8.736,2.17,2.17,0,0,1,6.5,10.9Zm4.246-5.635a.777.777,0,1,1-.777-.777A.775.775,0,0,1,10.742,5.268Zm2.207.789A3.846,3.846,0,0,0,11.9,3.333a3.872,3.872,0,0,0-2.723-1.05c-1.073-.061-4.289-.061-5.362,0A3.866,3.866,0,0,0,1.09,3.33,3.859,3.859,0,0,0,.04,6.054c-.061,1.073-.061,4.289,0,5.362a3.846,3.846,0,0,0,1.05,2.723,3.877,3.877,0,0,0,2.723,1.05c1.073.061,4.289.061,5.362,0a3.846,3.846,0,0,0,2.723-1.05,3.872,3.872,0,0,0,1.05-2.723c.061-1.073.061-4.286,0-5.36Zm-1.386,6.511A2.193,2.193,0,0,1,10.327,13.8a14.324,14.324,0,0,1-3.831.261A14.436,14.436,0,0,1,2.665,13.8,2.193,2.193,0,0,1,1.43,12.567a14.324,14.324,0,0,1-.261-3.831A14.436,14.436,0,0,1,1.43,4.905,2.193,2.193,0,0,1,2.665,3.67,14.324,14.324,0,0,1,6.5,3.409a14.436,14.436,0,0,1,3.831.261,2.193,2.193,0,0,1,1.235,1.235,14.324,14.324,0,0,1,.261,3.831A14.315,14.315,0,0,1,11.563,12.567Z" transform="translate(0.005 -2.238)"/></svg>