<svg xmlns="http://www.w3.org/2000/svg" width="24.936" height="34.005" viewBox="0 0 24.936 34.005"><defs><style>.a{fill:#aa9e47;}</style></defs><path class="a" d="M1.422,15.421c.232.867-.368,2.216.249,3.276s2.114,1.247,2.709,1.848a9.634,9.634,0,0,1,.958,1.7l-3,8.767a1.133,1.133,0,0,0,1.7,1.286l1.882-1.332.663,2.2a1.133,1.133,0,0,0,2.159.045l2.936-8.45a2.029,2.029,0,0,0,1.587,0l2.913,8.473a1.133,1.133,0,0,0,2.159-.045l.663-2.2L20.878,32.3a1.133,1.133,0,0,0,1.7-1.286L19.6,22.267a10.11,10.11,0,0,1,.952-1.7c.618-.635,2.12-.8,2.715-1.865s.028-2.437.249-3.276,1.422-1.717,1.422-2.958S23.723,10.3,23.514,9.51s.368-2.216-.249-3.276S21.15,4.987,20.555,4.386s-.782-2.12-1.853-2.72-2.437,0-3.276-.244S13.715,0,12.468,0,10.309,1.207,9.51,1.422c-.884.232-2.21-.374-3.276.244S4.993,3.774,4.386,4.381,2.267,5.163,1.7,6.234s0,2.437-.249,3.276S0,11.216,0,12.468s1.207,2.148,1.422,2.953ZM7.691,32.87l-.663-2.216a1.133,1.133,0,0,0-1.746-.567L3.4,31.4c3.038-8.847,2.777-8.167,2.834-8.167,1.043.606,2.437,0,3.276.244a4.681,4.681,0,0,1,1.133.691Zm11.964-2.834a1.133,1.133,0,0,0-1.746.623l-.663,2.21-2.981-8.677a4.313,4.313,0,0,1,1.133-.686c.89-.238,2.21.368,3.276-.249.057-.034-.2-.691,2.834,8.138ZM1.768,11.165a3.362,3.362,0,0,0,.793-2.975c-.13-1.468-.051-1.57,1.269-2.176A3.34,3.34,0,0,0,6.013,3.825c.6-1.315.788-1.394,2.182-1.264a3.483,3.483,0,0,0,2.975-.793c1.145-.793,1.4-.844,2.6,0a3.351,3.351,0,0,0,2.975.793c1.439-.125,1.576-.051,2.182,1.264a3.388,3.388,0,0,0,2.182,2.188c1.3.606,1.4.759,1.269,2.176a3.459,3.459,0,0,0,.793,2.975c.793,1.139.844,1.4,0,2.6a3.313,3.313,0,0,0-.793,2.975c.13,1.468.051,1.57-1.269,2.182A3.356,3.356,0,0,0,18.923,21.1c-.606,1.315-.759,1.394-2.182,1.269a3.492,3.492,0,0,0-2.975.788c-1.145.788-1.4.844-2.6,0a3.247,3.247,0,0,0-2.154-.839c-.816,0-1.74.232-2.216-.04-.652-.38-.827-1.751-1.615-2.533s-2.165-.975-2.533-1.61.153-1.927-.136-3-1.383-1.916-1.383-2.669a2.641,2.641,0,0,1,.635-1.3Z"/><path class="a" d="M15.5,24A8.5,8.5,0,1,0,7,15.5,8.5,8.5,0,0,0,15.5,24Zm0-15.868a7.367,7.367,0,1,1-5.21,2.158A7.367,7.367,0,0,1,15.5,8.133Z" transform="translate(-3.033 -3.033)"/><path class="a" d="M14.593,19.928a.567.567,0,0,0,.538-.567,3.6,3.6,0,0,1,1.088-2.675A5.232,5.232,0,0,1,19.325,15.4a6.563,6.563,0,0,0,2.409-.929c.737,2.834-.606,6.347-3.4,7.277a6.676,6.676,0,0,1-2.029.334,11.374,11.374,0,0,1,3.4-3.871.566.566,0,0,0-.663-.918,11.782,11.782,0,0,0-4.143,5.1.567.567,0,0,0,.476.754,6.478,6.478,0,0,0,6.948-3.74,7.883,7.883,0,0,0,.238-6.058.567.567,0,0,0-.856-.249,5.939,5.939,0,0,1-2.579,1.162,6.25,6.25,0,0,0-3.718,1.6A4.738,4.738,0,0,0,14,19.384a.567.567,0,0,0,.6.544Z" transform="translate(-6.064 -5.629)"/></svg>